#Exported from google sketchup
mtllib TableEdited.mtl
v -1.695138 2.219325 -20.382539
v -7.156138 2.219325 -19.231601
v -7.156138 2.219325 -20.382539
v -1.695138 2.219325 -19.231601
v 1.352862 2.219325 -19.231601
v 6.821681 0.000000 -19.231601
v 1.352862 0.000000 -19.231601
v 6.821681 2.219325 -19.231601
v 1.352862 -0.593725 -19.231601
v -1.695138 -0.788988 -19.231601
v 1.352862 -0.788988 -19.231601
v -1.695138 -0.593725 -19.231601
v 1.313175 -0.593725 -20.382539
v -1.695138 -0.593725 -20.382539
v 1.289173 -0.560388 20.016161
v -1.695138 -0.560388 21.167099
v -1.695138 -0.560388 20.016161
v 1.289173 -0.560388 21.167099
v 1.289173 -0.788988 20.016161
v -1.695138 -0.788988 20.016161
v -7.867456 2.219325 21.167099
v -1.695138 -0.788988 21.167099
v -7.867456 -0.788988 21.167099
v 1.289173 -0.788988 21.167099
v 7.972619 -0.788988 21.167099
v -1.695138 2.219325 21.167099
v 7.972619 2.219325 21.167099
v 1.289173 2.219325 21.167099
v -1.695138 2.219325 20.016161
v -7.156138 0.000000 20.016161
v -1.695138 0.000000 20.016161
v -7.156138 2.219325 20.016161
v -7.867456 -0.788988 -20.382539
v -1.695138 -0.788988 -20.382539
v 7.972619 -0.788988 -20.382539
v 1.313175 -0.788988 -20.382539
v 7.972619 2.219325 -20.382539
v 1.313175 2.219325 -20.382539
v 6.821681 2.219325 -20.382539
v -7.867456 2.219325 -20.382539
v -1.695138 0.000000 -19.231601
v -7.156138 0.000000 -19.231601
v 1.289173 0.000000 20.016161
v 6.821681 0.000000 20.016161
v 1.289173 2.219325 20.016161
v 6.821681 2.219325 20.016161
# 46 elements
vt 0.000000 0.000000 0.0000
vt 0.000000 0.000000 0.0000
vt 0.000000 0.000000 0.0000
vt 0.000000 0.000000 0.0000
vt 0.000000 0.000000 0.0000
vt 0.000000 0.000000 0.0000
vt 0.000000 0.000000 0.0000
vt 0.000000 0.000000 0.0000
vt 0.000000 0.000000 0.0000
vt 0.000000 0.000000 0.0000
vt 0.000000 0.000000 0.0000
vt 0.000000 0.000000 0.0000
vt 0.000000 0.000000 0.0000
vt 0.000000 0.000000 0.0000
vt 0.000000 0.000000 0.0000
vt 0.000000 0.000000 0.0000
vt 0.000000 0.000000 0.0000
vt 0.000000 0.000000 0.0000
vt 0.000000 0.000000 0.0000
vt 0.000000 0.000000 0.0000
vt 0.000000 0.000000 0.0000
vt 0.000000 0.000000 0.0000
vt 0.000000 0.000000 0.0000
vt 0.000000 0.000000 0.0000
vt 0.000000 0.000000 0.0000
vt 0.000000 0.000000 0.0000
vt 0.000000 0.000000 0.0000
vt 0.000000 0.000000 0.0000
vt 0.000000 0.000000 0.0000
vt 0.000000 0.000000 0.0000
vt 0.000000 0.000000 0.0000
vt 0.000000 0.000000 0.0000
vt 0.000000 0.000000 0.0000
vt 0.000000 0.000000 0.0000
vt 0.000000 0.000000 0.0000
vt 0.000000 0.000000 0.0000
vt 0.000000 0.000000 0.0000
vt 0.000000 0.000000 0.0000
vt 0.000000 0.000000 0.0000
vt 0.000000 0.000000 0.0000
vt 0.000000 0.000000 0.0000
vt 0.000000 0.000000 0.0000
vt 0.000000 0.000000 0.0000
vt 0.000000 0.000000 0.0000
vt 0.000000 0.000000 0.0000
vt 0.000000 0.000000 0.0000
# 46 elements
vn 0.000000 1.000000 0.000000
vn -0.000000 -1.000000 -0.000000
vn 0.000000 0.000000 1.000000
vn -0.000000 -0.000000 -1.000000
vn 0.000000 0.000000 -1.000000
vn 0.000000 -1.000000 0.000000
vn 1.000000 0.000000 0.000000
vn -1.000000 -0.000000 -0.000000
vn -1.000000 0.000000 0.000000
vn -0.999406 -0.000000 0.034462
vn 0.999406 0.000000 -0.034462
vn 1.000000 0.000000 -0.000000
# 12 elements
#  184 faces
usemtl Default_Material
f 3/3/1 2/2/1 1/1/1
f 4/4/1 1/1/1 2/2/1
f 1/1/2 2/2/2 3/3/2
f 2/2/2 1/1/2 4/4/2
f 7/7/3 6/6/3 5/5/3
f 8/8/3 5/5/3 6/6/3
f 5/5/4 6/6/4 7/7/4
f 6/6/4 5/5/4 8/8/4
f 11/11/5 10/10/5 9/9/5
f 12/12/5 9/9/5 10/10/5
f 9/9/3 10/10/3 11/11/3
f 10/10/3 9/9/3 12/12/3
f 14/14/1 12/12/1 13/13/1
f 9/9/1 13/13/1 12/12/1
f 13/13/2 12/12/2 14/14/2
f 12/12/2 13/13/2 9/9/2
f 17/17/1 16/16/1 15/15/1
f 18/18/1 15/15/1 16/16/1
f 15/15/2 16/16/2 17/17/2
f 16/16/2 15/15/2 18/18/2
f 20/20/3 19/19/3 17/17/3
f 15/15/3 17/17/3 19/19/3
f 17/17/4 19/19/4 20/20/4
f 19/19/4 17/17/4 15/15/4
f 23/23/3 22/22/3 21/21/3
f 16/16/3 21/21/3 22/22/3
f 24/24/3 16/16/3 22/22/3
f 25/25/3 16/16/3 24/24/3
f 26/26/3 21/21/3 16/16/3
f 27/27/3 18/18/3 25/25/3
f 16/16/3 25/25/3 18/18/3
f 28/28/3 18/18/3 27/27/3
f 21/21/4 22/22/4 23/23/4
f 22/22/4 21/21/4 16/16/4
f 22/22/4 16/16/4 24/24/4
f 24/24/4 16/16/4 25/25/4
f 16/16/4 21/21/4 26/26/4
f 25/25/4 18/18/4 27/27/4
f 18/18/4 25/25/4 16/16/4
f 27/27/4 18/18/4 28/28/4
f 31/31/5 30/30/5 29/29/5
f 32/32/5 29/29/5 30/30/5
f 29/29/3 30/30/3 31/31/3
f 30/30/3 29/29/3 32/32/3
f 20/20/6 10/10/6 19/19/6
f 11/11/6 19/19/6 10/10/6
f 23/23/6 33/33/6 22/22/6
f 34/34/6 22/22/6 33/33/6
f 20/20/6 22/22/6 34/34/6
f 10/10/6 20/20/6 34/34/6
f 24/24/6 19/19/6 25/25/6
f 11/11/6 25/25/6 19/19/6
f 36/36/6 35/35/6 11/11/6
f 25/25/6 11/11/6 35/35/6
f 19/19/1 10/10/1 20/20/1
f 10/10/1 19/19/1 11/11/1
f 22/22/1 33/33/1 23/23/1
f 33/33/1 22/22/1 34/34/1
f 34/34/1 22/22/1 20/20/1
f 34/34/1 20/20/1 10/10/1
f 25/25/1 19/19/1 24/24/1
f 19/19/1 25/25/1 11/11/1
f 11/11/1 35/35/1 36/36/1
f 35/35/1 11/11/1 25/25/1
f 35/35/5 36/36/5 37/37/5
f 13/13/5 37/37/5 36/36/5
f 34/34/5 13/13/5 36/36/5
f 33/33/5 13/13/5 34/34/5
f 38/38/5 37/37/5 13/13/5
f 39/39/5 37/37/5 38/38/5
f 40/40/5 14/14/5 33/33/5
f 13/13/5 33/33/5 14/14/5
f 1/1/5 14/14/5 40/40/5
f 3/3/5 1/1/5 40/40/5
f 37/37/3 36/36/3 35/35/3
f 36/36/3 37/37/3 13/13/3
f 36/36/3 13/13/3 34/34/3
f 34/34/3 13/13/3 33/33/3
f 13/13/3 37/37/3 38/38/3
f 38/38/3 37/37/3 39/39/3
f 33/33/3 14/14/3 40/40/3
f 14/14/3 33/33/3 13/13/3
f 40/40/3 14/14/3 1/1/3
f 40/40/3 1/1/3 3/3/3
f 35/35/7 37/37/7 25/25/7
f 27/27/7 25/25/7 37/37/7
f 25/25/8 37/37/8 35/35/8
f 37/37/8 25/25/8 27/27/8
f 40/40/9 33/33/9 21/21/9
f 23/23/9 21/21/9 33/33/9
f 21/21/7 33/33/7 40/40/7
f 33/33/7 21/21/7 23/23/7
f 42/42/1 30/30/1 41/41/1
f 31/31/1 41/41/1 30/30/1
f 7/7/1 41/41/1 31/31/1
f 43/43/1 7/7/1 31/31/1
f 44/44/1 7/7/1 43/43/1
f 6/6/1 7/7/1 44/44/1
f 41/41/2 30/30/2 42/42/2
f 30/30/2 41/41/2 31/31/2
f 31/31/2 41/41/2 7/7/2
f 31/31/2 7/7/2 43/43/2
f 43/43/2 7/7/2 44/44/2
f 44/44/2 7/7/2 6/6/2
f 45/45/9 43/43/9 28/28/9
f 15/15/9 28/28/9 43/43/9
f 18/18/9 28/28/9 15/15/9
f 28/28/7 43/43/7 45/45/7
f 43/43/7 28/28/7 15/15/7
f 15/15/7 28/28/7 18/18/7
f 40/40/1 21/21/1 3/3/1
f 32/32/1 3/3/1 21/21/1
f 26/26/1 32/32/1 21/21/1
f 2/2/1 3/3/1 32/32/1
f 29/29/1 32/32/1 26/26/1
f 3/3/2 21/21/2 40/40/2
f 21/21/2 3/3/2 32/32/2
f 21/21/2 32/32/2 26/26/2
f 32/32/2 3/3/2 2/2/2
f 26/26/2 32/32/2 29/29/2
f 38/38/10 13/13/10 5/5/10
f 9/9/10 5/5/10 13/13/10
f 7/7/10 5/5/10 9/9/10
f 5/5/11 13/13/11 38/38/11
f 13/13/11 5/5/11 9/9/11
f 9/9/11 5/5/11 7/7/11
f 39/39/1 8/8/1 37/37/1
f 46/46/1 37/37/1 8/8/1
f 45/45/1 28/28/1 46/46/1
f 27/27/1 46/46/1 28/28/1
f 37/37/1 46/46/1 27/27/1
f 37/37/2 8/8/2 39/39/2
f 8/8/2 37/37/2 46/46/2
f 46/46/2 28/28/2 45/45/2
f 28/28/2 46/46/2 27/27/2
f 27/27/2 46/46/2 37/37/2
f 22/22/6 20/20/6 24/24/6
f 19/19/6 24/24/6 20/20/6
f 24/24/1 20/20/1 22/22/1
f 20/20/1 24/24/1 19/19/1
f 10/10/6 34/34/6 11/11/6
f 36/36/6 11/11/6 34/34/6
f 11/11/1 34/34/1 10/10/1
f 34/34/1 11/11/1 36/36/1
f 9/9/5 12/12/5 7/7/5
f 41/41/5 7/7/5 12/12/5
f 7/7/3 12/12/3 9/9/3
f 12/12/3 7/7/3 41/41/3
f 14/14/7 1/1/7 12/12/7
f 4/4/7 12/12/7 1/1/7
f 41/41/7 12/12/7 4/4/7
f 12/12/8 1/1/8 14/14/8
f 1/1/8 12/12/8 4/4/8
f 4/4/8 12/12/8 41/41/8
f 17/17/7 31/31/7 16/16/7
f 29/29/7 16/16/7 31/31/7
f 26/26/7 16/16/7 29/29/7
f 16/16/8 31/31/8 17/17/8
f 31/31/8 16/16/8 29/29/8
f 29/29/8 16/16/8 26/26/8
f 17/17/3 15/15/3 31/31/3
f 43/43/3 31/31/3 15/15/3
f 31/31/4 15/15/4 17/17/4
f 15/15/4 31/31/4 43/43/4
f 8/8/9 6/6/9 46/46/9
f 44/44/9 46/46/9 6/6/9
f 46/46/12 6/6/12 8/8/12
f 6/6/12 46/46/12 44/44/12
f 42/42/3 41/41/3 2/2/3
f 4/4/3 2/2/3 41/41/3
f 2/2/4 41/41/4 42/42/4
f 41/41/4 2/2/4 4/4/4
f 38/38/1 5/5/1 39/39/1
f 8/8/1 39/39/1 5/5/1
f 39/39/2 5/5/2 38/38/2
f 5/5/2 39/39/2 8/8/2
f 42/42/7 2/2/7 30/30/7
f 32/32/7 30/30/7 2/2/7
f 30/30/8 2/2/8 42/42/8
f 2/2/8 30/30/8 32/32/8
f 44/44/5 43/43/5 46/46/5
f 45/45/5 46/46/5 43/43/5
f 46/46/3 43/43/3 44/44/3
f 43/43/3 46/46/3 45/45/3